<?xml version="1.0" standalone="no"?>
<!DOCTYPE svg PUBLIC "-//W3C//DTD SVG 20010904//EN"
 "http://www.w3.org/TR/2001/REC-SVG-20010904/DTD/svg10.dtd">
<svg version="1.0" xmlns="http://www.w3.org/2000/svg"
 width="332.000000pt" height="74.000000pt" viewBox="0 0 332.000000 74.000000"
 preserveAspectRatio="xMidYMid meet">
<metadata>
Created by potrace 1.16, written by Peter Selinger 2001-2019
</metadata>
<g transform="translate(0.000000,74.000000) scale(0.100000,-0.100000)"
fill="#000000" stroke="none">
<path d="M105 635 c-33 -32 -31 -61 5 -93 l30 -26 0 -157 c0 -156 0 -157 -25
-173 -30 -20 -41 -56 -25 -85 10 -20 19 -21 136 -21 123 0 125 0 136 25 14 32
-2 71 -37 87 -19 9 -25 19 -25 43 0 32 1 32 55 38 116 12 185 84 185 194 0 66
-18 111 -58 145 -41 35 -109 48 -243 48 -103 0 -111 -1 -134 -25z m191 -35
c150 0 165 -8 172 -92 5 -65 -15 -117 -56 -144 -15 -10 -56 -19 -101 -23 l-76
-6 0 -85 0 -84 38 -9 c64 -15 41 -27 -53 -27 -50 0 -90 2 -90 6 0 3 13 10 30
15 l30 11 2 194 c0 107 1 199 2 206 1 7 -14 16 -31 22 -37 10 -46 32 -10 22
12 -3 77 -6 143 -6z"/>
<path d="M235 568 c-3 -8 -4 -57 -3 -109 l3 -94 64 2 c102 3 129 28 133 121 2
66 -23 86 -117 90 -58 3 -76 1 -80 -10z"/>
<path d="M680 640 c-28 -28 -25 -57 10 -90 l30 -28 0 -160 c0 -159 0 -160 -25
-176 -30 -20 -41 -56 -25 -85 10 -20 18 -21 200 -21 219 0 213 -3 224 105 7
69 -7 108 -42 113 -20 3 -22 9 -22 62 0 50 4 63 25 84 22 22 25 33 25 101 0
115 0 115 -210 115 -157 0 -172 -2 -190 -20z m248 -39 c-67 -4 -102 -11 -112
-21 -11 -12 -16 -62 -22 -228 -7 -229 -7 -227 -61 -219 l-28 3 33 13 32 13 0
197 c0 123 4 201 10 207 14 14 -6 31 -45 37 -16 2 42 4 130 4 136 0 146 -1 63
-6z"/>
<path d="M1266 637 c-34 -34 -33 -63 4 -97 l30 -28 0 -155 c0 -154 0 -155 -25
-171 -30 -20 -41 -56 -25 -85 10 -20 19 -21 135 -21 116 0 125 1 136 21 l11
21 19 -21 c17 -18 32 -21 92 -21 80 0 97 9 97 52 0 26 -8 37 -61 82 -9 7 -24
34 -34 60 -18 47 -18 47 5 68 54 50 67 162 27 233 -36 64 -77 78 -244 83 -141
4 -142 4 -167 -21z"/>
<path d="M1870 640 c-28 -28 -25 -57 10 -90 l30 -28 0 -160 c0 -149 -1 -161
-19 -167 -10 -3 -24 -19 -31 -35 -10 -25 -10 -34 4 -55 16 -24 19 -25 136 -25
118 0 120 0 137 26 15 24 15 29 2 53 -8 14 -27 32 -42 39 -23 11 -27 19 -27
58 0 51 13 57 34 15 17 -32 47 -44 81 -31 30 11 35 28 35 115 0 66 2 74 21 80
27 9 39 44 39 114 0 44 -5 65 -21 85 l-20 26 -175 0 c-161 0 -176 -2 -194 -20z"/>
<path d="M2410 640 c-28 -28 -25 -57 10 -90 l30 -28 0 -160 c0 -159 0 -160
-25 -176 -30 -20 -41 -56 -25 -85 10 -20 19 -21 136 -21 123 0 125 0 136 25
14 32 -2 71 -37 87 l-25 11 0 164 c0 107 4 163 10 163 19 0 60 48 60 70 0 11
-9 29 -20 40 -17 17 -33 20 -125 20 -92 0 -108 -3 -125 -20z"/>
<path d="M2835 635 c-14 -13 -25 -29 -25 -35 0 -18 22 -54 42 -68 16 -12 18
-29 18 -171 0 -158 0 -159 -25 -175 -30 -20 -41 -56 -25 -85 10 -20 18 -21
205 -21 228 0 215 -8 215 125 0 81 -1 86 -25 97 -34 15 -70 -2 -96 -47 -17
-29 -27 -35 -55 -35 l-34 0 0 146 0 145 35 33 c41 39 44 58 10 91 -22 23 -32
25 -120 25 -88 0 -98 -2 -120 -25z"/>
</g>
</svg>
